<?xml version="1.0" encoding="UTF-8" standalone="no"?>
<svg
   xmlns:dc="http://purl.org/dc/elements/1.1/"
   xmlns:cc="http://creativecommons.org/ns#"
   xmlns:rdf="http://www.w3.org/1999/02/22-rdf-syntax-ns#"
   xmlns:svg="http://www.w3.org/2000/svg"
   xmlns="http://www.w3.org/2000/svg"
   version="1.1"
   id="svg3359"
   viewBox="0 0 200 112"
   height="112"
   width="200"
   onload="__init__(evt)">
  <title
     id="title4141">Progress gears</title>
  <defs
     id="defs3361" />
  <metadata
     id="metadata3364">
    <rdf:RDF>
      <cc:Work
         rdf:about="">
        <dc:format>image/svg+xml</dc:format>
        <dc:type
           rdf:resource="http://purl.org/dc/dcmitype/StillImage" />
        <dc:title>Progress gears</dc:title>
        <dc:creator>
          <cc:Agent>
            <dc:title>Alexei Muzarov</dc:title>
          </cc:Agent>
        </dc:creator>
        <dc:date>2015-06-30</dc:date>
      </cc:Work>
    </rdf:RDF>
  </metadata>
  <script
     type="text/ecmascript"
     id="script5"><![CDATA[
    // gear elements
    var leftGear
    var rightGear
    // gear attributes
    var leftGearTransform
    var rightGearTransform
    // start angle
    var leftGearAngle = 0;
    var rightGearAngle = 360;
    // speed
    var stepAngle = 1;
    var stepTime = 25;
    
    function __init__(evt) {
      leftGear = evt.target.ownerDocument.getElementById("leftGear");
      leftGearTransform = leftGear.getAttribute("transform");
      rightGear = evt.target.ownerDocument.getElementById("rightGear");
      rightGearTransform = rightGear.getAttribute("transform");
      __rotate__();
    }
    
    function __rotate__() {
      leftGearAngle += stepAngle;
      rightGearAngle -= stepAngle;
      if (leftGearAngle > 359) {
        leftGearAngle -= 360;
      }
      if (rightGearAngle < 1) {
        rightGearAngle += 360;
      }
      leftGear.setAttribute('transform', leftGearTransform + ' rotate(' + leftGearAngle +')');
      rightGear.setAttribute('transform', rightGearTransform + ' rotate(' + rightGearAngle +')');
      setTimeout("__rotate__()", stepTime);
    }
    
    ]]></script>
  <g
     id="leftGear"
     transform="translate(58.55308,56)">
    <path
       id="path5758"
       transform="translate(-58.55308,-56)"
       d="M 56.378906 7.0292969 L 53.068359 14.341797 L 52.816406 16.935547 L 53.466797 21.357422 L 45.636719 23.455078 L 43.988281 19.300781 L 42.474609 17.181641 L 35.949219 12.501953 L 32.185547 14.675781 L 32.974609 22.666016 L 34.052734 25.037109 L 36.826172 28.542969 L 31.095703 34.273438 L 27.591797 31.5 L 25.21875 30.421875 L 17.228516 29.632812 L 15.056641 33.396484 L 19.734375 39.919922 L 21.853516 41.435547 L 26.007812 43.083984 L 23.910156 50.912109 L 19.488281 50.263672 L 16.896484 50.515625 L 9.5820312 53.826172 L 9.5820312 58.173828 L 16.896484 61.484375 L 19.488281 61.736328 L 23.910156 61.087891 L 26.007812 68.916016 L 21.853516 70.564453 L 19.734375 72.080078 L 15.056641 78.603516 L 17.228516 82.367188 L 25.21875 81.578125 L 27.591797 80.5 L 31.095703 77.726562 L 36.826172 83.457031 L 34.052734 86.962891 L 32.974609 89.333984 L 32.185547 97.324219 L 35.949219 99.498047 L 42.474609 94.818359 L 43.988281 92.699219 L 45.636719 88.544922 L 53.466797 90.642578 L 52.816406 95.064453 L 53.068359 97.658203 L 56.378906 104.9707 L 60.726562 104.9707 L 64.037109 97.658203 L 64.289062 95.064453 L 63.640625 90.642578 L 71.46875 88.544922 L 73.117188 92.699219 L 74.632812 94.818359 L 81.15625 99.498047 L 84.921875 97.324219 L 84.130859 89.333984 L 83.052734 86.962891 L 80.279297 83.457031 L 86.011719 77.726562 L 89.515625 80.5 L 91.886719 81.578125 L 99.876953 82.367188 L 102.05078 78.603516 L 97.371094 72.080078 L 95.251953 70.564453 L 91.097656 68.916016 L 93.195312 61.087891 L 97.617188 61.736328 L 100.21094 61.484375 L 107.52539 58.173828 L 107.52539 53.826172 L 100.21094 50.515625 L 97.617188 50.263672 L 93.195312 50.912109 L 91.097656 43.083984 L 95.251953 41.435547 L 97.371094 39.919922 L 102.05078 33.396484 L 99.876953 29.632812 L 91.886719 30.421875 L 89.515625 31.5 L 86.011719 34.273438 L 80.279297 28.542969 L 83.052734 25.037109 L 84.130859 22.666016 L 84.921875 14.675781 L 81.15625 12.501953 L 74.632812 17.181641 L 73.117188 19.300781 L 71.46875 23.455078 L 63.640625 21.357422 L 64.289062 16.935547 L 64.037109 14.341797 L 60.726562 7.0292969 L 56.378906 7.0292969 z M 58.552734 30.140625 C 67.99142 30.140625 76.243763 35.166216 80.753906 42.703125 A 1.50015 1.50015 0 1 1 78.179688 44.242188 C 74.194359 37.582296 66.928549 33.140625 58.552734 33.140625 C 50.176971 33.140625 42.913179 37.582175 38.927734 44.242188 A 1.50015 1.50015 0 1 1 36.353516 42.703125 C 40.863569 35.166449 49.114082 30.140625 58.552734 30.140625 z M 79.542969 66.994141 A 1.50015 1.50015 0 0 1 80.753906 69.296875 C 76.243763 76.833784 67.99142 81.859375 58.552734 81.859375 C 49.114082 81.859375 40.863569 76.833551 36.353516 69.296875 A 1.50015 1.50015 0 0 1 37.699219 67.009766 A 1.50015 1.50015 0 0 1 38.927734 67.757812 C 42.913179 74.417825 50.176971 78.859375 58.552734 78.859375 C 66.928549 78.859375 74.194358 74.417704 78.179688 67.757812 A 1.50015 1.50015 0 0 1 79.542969 66.994141 z "
       style="color:#000000;clip-rule:nonzero;display:inline;overflow:visible;visibility:visible;opacity:1;isolation:auto;mix-blend-mode:normal;color-interpolation:sRGB;color-interpolation-filters:linearRGB;solid-color:#000000;solid-opacity:1;fill:#db270a;fill-opacity:1;fill-rule:nonzero;stroke:none;stroke-width:10.34399223;stroke-linecap:butt;stroke-linejoin:round;stroke-miterlimit:4;stroke-dasharray:none;stroke-dashoffset:0;stroke-opacity:1;marker:none;color-rendering:auto;image-rendering:auto;shape-rendering:auto;text-rendering:auto;enable-background:accumulate" />
    <circle
       r="12.5"
       cy="0"
       cx="0"
       id="path5760"
       style="fill:#8193e9;fill-opacity:1;stroke:#ffffff;stroke-width:3;stroke-opacity:1;stroke-miterlimit:4;stroke-dasharray:none" />
  </g>
  <g
     transform="matrix(0.96592583,0.25881905,-0.25881905,0.96592583,142.55308,56)"
     id="rightGear">
    <path
       id="path5786"
       transform="matrix(0.96592582,-0.25881905,0.25881905,0.96592582,-152.18957,-17.196394)"
       d="M 131.97852 8.1347656 L 127.7793 9.2597656 L 126.47461 17.181641 L 126.90234 19.751953 L 128.67383 23.855469 L 121.6543 27.90625 L 118.98633 24.322266 L 116.97461 22.666016 L 109.46094 19.835938 L 106.38867 22.908203 L 109.21875 30.421875 L 110.875 32.433594 L 114.45898 35.101562 L 110.4082 42.119141 L 106.30469 40.347656 L 103.73438 39.919922 L 95.8125 41.226562 L 94.6875 45.423828 L 100.89648 50.515625 L 103.33594 51.429688 L 107.77344 51.947266 L 107.77344 60.052734 L 103.33594 60.570312 L 100.89648 61.484375 L 94.6875 66.576172 L 95.8125 70.773438 L 103.73438 72.080078 L 106.30469 71.652344 L 110.4082 69.880859 L 114.45898 76.898438 L 110.875 79.566406 L 109.21875 81.578125 L 106.38867 89.091797 L 109.46094 92.164062 L 116.97461 89.333984 L 118.98633 87.677734 L 121.6543 84.09375 L 128.67383 88.144531 L 126.90234 92.248047 L 126.47461 94.818359 L 127.7793 102.74023 L 131.97852 103.86523 L 137.06836 97.658203 L 137.98438 95.216797 L 138.5 90.779297 L 146.60547 90.779297 L 147.12305 95.216797 L 148.03711 97.658203 L 153.12891 103.86523 L 157.32617 102.74023 L 158.63281 94.818359 L 158.20508 92.248047 L 156.43359 88.144531 L 163.45117 84.09375 L 166.11914 87.677734 L 168.13086 89.333984 L 175.64453 92.164062 L 178.71875 89.091797 L 175.88672 81.578125 L 174.23242 79.566406 L 170.64648 76.898438 L 174.69922 69.880859 L 178.80078 71.652344 L 181.37109 72.080078 L 189.29297 70.773438 L 190.41797 66.576172 L 184.21094 61.484375 L 181.77148 60.570312 L 177.33203 60.052734 L 177.33203 51.947266 L 181.77148 51.429688 L 184.21094 50.515625 L 190.41797 45.423828 L 189.29297 41.226562 L 181.37109 39.919922 L 178.80078 40.347656 L 174.69922 42.119141 L 170.64648 35.101562 L 174.23242 32.433594 L 175.88672 30.421875 L 178.71875 22.908203 L 175.64453 19.835938 L 168.13086 22.666016 L 166.11914 24.322266 L 163.45117 27.90625 L 156.43359 23.855469 L 158.20508 19.751953 L 158.63281 17.181641 L 157.32617 9.2597656 L 153.12891 8.1347656 L 148.03711 14.341797 L 147.12305 16.783203 L 146.60547 21.220703 L 138.5 21.220703 L 137.98438 16.783203 L 137.06836 14.341797 L 131.97852 8.1347656 z M 142.13672 30.125 A 1.5001833 1.5001833 0 1 1 142.18359 33.125 C 134.42312 33.246487 126.94373 37.316696 122.75586 44.570312 C 118.56795 51.823985 118.78362 60.335839 122.55859 67.117188 A 1.5003708 1.5003708 0 0 1 119.9375 68.578125 C 115.66541 60.903765 115.43885 51.244461 120.1582 43.070312 C 124.87752 34.896204 133.35473 30.262479 142.13672 30.125 z M 163.81445 42.634766 A 1.50015 1.50015 0 0 1 165.16992 43.423828 C 169.44185 51.097997 169.66855 60.7556 164.94922 68.929688 C 160.22987 77.103848 151.75097 81.737558 142.96875 81.875 A 1.5001833 1.5001833 0 1 1 142.92188 78.875 C 150.68216 78.753552 158.1617 74.683375 162.34961 67.429688 C 166.53749 60.176096 166.32384 51.664328 162.54883 44.882812 A 1.50015 1.50015 0 0 1 163.81445 42.634766 z "
       style="color:#000000;clip-rule:nonzero;display:inline;overflow:visible;visibility:visible;opacity:1;isolation:auto;mix-blend-mode:normal;color-interpolation:sRGB;color-interpolation-filters:linearRGB;solid-color:#000000;solid-opacity:1;fill:#db270a;fill-opacity:1;fill-rule:nonzero;stroke:none;stroke-width:10.34399223;stroke-linecap:butt;stroke-linejoin:round;stroke-miterlimit:4;stroke-dasharray:none;stroke-dashoffset:0;stroke-opacity:1;marker:none;color-rendering:auto;image-rendering:auto;shape-rendering:auto;text-rendering:auto;enable-background:accumulate" />
    <circle
       r="12.5"
       cy="0"
       cx="0"
       style="fill:#8193e9;fill-opacity:1;stroke:#ffffff;stroke-width:2.99999999;stroke-opacity:1;stroke-miterlimit:4;stroke-dasharray:none"
       id="path5788" />
  </g>
  <g
     id="g4270" />
</svg>
