<?xml version="1.0" encoding="UTF-8" standalone="no"?>
<svg
   xmlns:dc="http://purl.org/dc/elements/1.1/"
   xmlns:cc="http://creativecommons.org/ns#"
   xmlns:rdf="http://www.w3.org/1999/02/22-rdf-syntax-ns#"
   xmlns:svg="http://www.w3.org/2000/svg"
   xmlns="http://www.w3.org/2000/svg"
   width="54"
   height="64"
   viewBox="0 0 54.000002 64.000002"
   id="svg2"
   version="1.1">
  <title
     id="title4411">Trash box</title>
  <defs
     id="defs4" />
  <metadata
     id="metadata7">
    <rdf:RDF>
      <cc:Work
         rdf:about="">
        <dc:format>image/svg+xml</dc:format>
        <dc:type
           rdf:resource="http://purl.org/dc/dcmitype/StillImage" />
        <dc:title>Trash box</dc:title>
        <dc:creator>
          <cc:Agent>
            <dc:title>Alexei Muzarov</dc:title>
          </cc:Agent>
        </dc:creator>
        <dc:date>2015-07-19</dc:date>
      </cc:Work>
    </rdf:RDF>
  </metadata>
  <g
     onclick="top.WebInstaller.selfRemove(this);"
     ontouchstart="top.WebInstaller.selfRemove(this);"
     id="bucket">
    <g
       transform="translate(-237.3554,-217.99651)"
       id="g4346">
      <path
         id="rect4146"
         d="m 242.3554,229.99652 0,4.77344 0,8.48438 0,31.96875 c 0,2.64422 2.12921,4.77343 4.77344,4.77343 l 34.45312,0 c 2.64423,0 4.77344,-2.12921 4.77344,-4.77343 l 0,-31.96875 0,-8.48438 0,-4.77344 -4.77344,0 -34.45312,0 z"
         style="color:#000000;clip-rule:nonzero;display:inline;overflow:visible;visibility:visible;opacity:1;isolation:auto;mix-blend-mode:normal;color-interpolation:sRGB;color-interpolation-filters:linearRGB;solid-color:#000000;solid-opacity:1;fill:#7a7a7a;fill-opacity:1;fill-rule:nonzero;stroke:none;stroke-width:5;stroke-linecap:butt;stroke-linejoin:round;stroke-miterlimit:4;stroke-dasharray:none;stroke-dashoffset:0;stroke-opacity:1;marker:none;color-rendering:auto;image-rendering:auto;shape-rendering:auto;text-rendering:auto;enable-background:accumulate" />
      <path
         id="rect4190"
         d="m 246.35547,229.99609 0,45.11719 c 0,1.108 0.892,2 2,2 1.108,0 2,-0.892 2,-2 l 0,-45.11719 -4,0 z m 8,0 0,45.11719 c 0,1.108 0.892,2 2,2 1.108,0 2,-0.892 2,-2 l 0,-45.11719 -4,0 z m 8,0 0,45.11719 c 0,1.108 0.892,2 2,2 1.108,0 2,-0.892 2,-2 l 0,-45.11719 -4,0 z m 8,0 0,45.11719 c 0,1.108 0.892,2 2,2 1.108,0 2,-0.892 2,-2 l 0,-45.11719 -4,0 z m 8,0 0,45.11719 c 0,1.108 0.892,2 2,2 1.108,0 2,-0.892 2,-2 l 0,-45.11719 -4,0 z"
         style="color:#000000;clip-rule:nonzero;display:inline;overflow:visible;visibility:visible;opacity:1;isolation:auto;mix-blend-mode:normal;color-interpolation:sRGB;color-interpolation-filters:linearRGB;solid-color:#000000;solid-opacity:1;fill:#a50000;fill-opacity:1;fill-rule:nonzero;stroke:none;stroke-width:5;stroke-linecap:butt;stroke-linejoin:round;stroke-miterlimit:4;stroke-dasharray:none;stroke-dashoffset:0;stroke-opacity:1;marker:none;color-rendering:auto;image-rendering:auto;shape-rendering:auto;text-rendering:auto;enable-background:accumulate" />
    </g>
    <g
       id="g4341"
       transform="translate(-237.35547,-217.9961)">
      <path
         id="rect4327"
         d="m 257.79883,219.99609 c -1.90737,0 -3.44336,1.53599 -3.44336,3.44336 l 0,3.11328 c 0,1.75537 1.30598,3.18195 3,3.40039 l 0,-5.61718 c 0,-0.74257 0.59727,-1.33985 1.33984,-1.33985 l 11.32031,0 c 0.74257,0 1.33985,0.59728 1.33985,1.33985 l 0,5.61718 c 1.69402,-0.21844 3,-1.64502 3,-3.40039 l 0,-3.11328 c 0,-1.90737 -1.53599,-3.44336 -3.44336,-3.44336 l -13.11328,0 z"
         style="color:#000000;clip-rule:nonzero;display:inline;overflow:visible;visibility:visible;opacity:1;isolation:auto;mix-blend-mode:normal;color-interpolation:sRGB;color-interpolation-filters:linearRGB;solid-color:#000000;solid-opacity:1;fill:#a50000;fill-opacity:1;fill-rule:nonzero;stroke:none;stroke-width:5;stroke-linecap:butt;stroke-linejoin:round;stroke-miterlimit:4;stroke-dasharray:none;stroke-dashoffset:0;stroke-opacity:1;marker:none;color-rendering:auto;image-rendering:auto;shape-rendering:auto;text-rendering:auto;enable-background:accumulate" />
      <path
         id="rect4286"
         d="m 242.01172,226.17578 c -1.47133,0 -2.65625,1.18492 -2.65625,2.65625 l 0,0.44727 0,2.24218 0,4.6543 2.65625,0 44.6875,0 2.65625,0 0,-4.6543 0,-2.24218 0,-0.44727 c 0,-1.47133 -1.18492,-2.65625 -2.65625,-2.65625 z"
         style="color:#000000;clip-rule:nonzero;display:inline;overflow:visible;visibility:visible;opacity:1;isolation:auto;mix-blend-mode:normal;color-interpolation:sRGB;color-interpolation-filters:linearRGB;solid-color:#000000;solid-opacity:1;fill:#7a7a7a;fill-opacity:1;fill-rule:nonzero;stroke:none;stroke-width:5;stroke-linecap:butt;stroke-linejoin:round;stroke-miterlimit:4;stroke-dasharray:none;stroke-dashoffset:0;stroke-opacity:1;marker:none;color-rendering:auto;image-rendering:auto;shape-rendering:auto;text-rendering:auto;enable-background:accumulate" />
      <rect
         y="233.17578"
         x="239.35547"
         height="3"
         width="50"
         id="rect4323"
         style="color:#000000;clip-rule:nonzero;display:inline;overflow:visible;visibility:visible;opacity:1;isolation:auto;mix-blend-mode:normal;color-interpolation:sRGB;color-interpolation-filters:linearRGB;solid-color:#000000;solid-opacity:1;fill:#e66666;fill-opacity:1;fill-rule:nonzero;stroke:none;stroke-width:5;stroke-linecap:butt;stroke-linejoin:round;stroke-miterlimit:4;stroke-dasharray:none;stroke-dashoffset:0;stroke-opacity:1;marker:none;color-rendering:auto;image-rendering:auto;shape-rendering:auto;text-rendering:auto;enable-background:accumulate" />
    </g>
    <path
       style="fill:#ffffff;fill-opacity:1;fill-rule:evenodd;stroke:#000000;stroke-width:1.00000012;stroke-linecap:butt;stroke-linejoin:round;stroke-miterlimit:4;stroke-dasharray:none;stroke-opacity:1"
       d="m 30.751394,25.712673 -3.144708,-11.73621 c -0.414239,-1.545962 2.935957,-2.727609 3.421187,-0.916705 l 2.232262,8.330912 c -0.78315,-2.922752 2.921158,-3.767062 3.667243,-0.982635 l 0.280753,1.047785 c -0.842989,-3.14608 2.622954,-3.308305 3.274326,-0.877353 l 0.350941,1.30973 c -0.702366,-2.621265 2.457027,-3.665601 3.208838,-0.859806 l 2.246023,8.382271 c 1.092843,4.078547 -9.742547,7.279331 -13.424732,3.597146 -2.012315,-2.012314 -6.556543,-6.525389 -6.556543,-6.525389 -1.537134,-1.537133 -0.01389,-3.551241 1.773759,-3.072241 z"
       id="path4143" />
  </g>
</svg>
