<?xml version="1.0" encoding="UTF-8" standalone="no"?>
<svg
   xmlns:dc="http://purl.org/dc/elements/1.1/"
   xmlns:cc="http://creativecommons.org/ns#"
   xmlns:rdf="http://www.w3.org/1999/02/22-rdf-syntax-ns#"
   xmlns:svg="http://www.w3.org/2000/svg"
   xmlns="http://www.w3.org/2000/svg"
   version="1.1"
   id="svg2"
   viewBox="0 0 62.000001 62"
   height="62"
   width="62"
   onload="__init__(evt)">
  <title
     id="title4341">Wait Gear</title>
  <defs
     id="defs4" />
  <metadata
     id="metadata7">
    <rdf:RDF>
      <cc:Work
         rdf:about="">
        <dc:format>image/svg+xml</dc:format>
        <dc:type
           rdf:resource="http://purl.org/dc/dcmitype/StillImage" />
        <dc:title>Wait Gear</dc:title>
        <dc:date>2015-07-19</dc:date>
        <dc:creator>
          <cc:Agent>
            <dc:title>Alexei Muzarov</dc:title>
          </cc:Agent>
        </dc:creator>
      </cc:Work>
    </rdf:RDF>
  </metadata>
  <script
     id="script5"
     type="text/ecmascript"><![CDATA[
    // gear elements
    var gear;
    // gear attributes
    var gearTransform;
    // start angle
    var gearAngle = 0;
    // speed
    var stepAngle = 1;
    var stepTime = 10;
    
    function __init__(evt) {
      gear = evt.target.ownerDocument.getElementById("gear");
      gearTransform = gear.getAttribute("transform");
      __rotate__();
    }
    
    function __rotate__() {
      gearAngle += stepAngle;
      if (gearAngle > 359) {
        gearAngle -= 360;
      }
      gear.setAttribute('transform', gearTransform + ' rotate(' + gearAngle +')');
      setTimeout("__rotate__()", stepTime);
    }
    ]]></script>
  <path
     id="rect3363"
     d="m 30.999999,6.5656781 c 13.536613,0 24.434323,10.8977099 24.434323,24.4343219 0,13.536613 -10.89771,24.434322 -24.434323,24.434322 C 17.463387,55.434322 6.5656776,44.536613 6.5656776,31 6.5656776,17.463388 17.463387,6.5656781 30.999999,6.5656781 Z"
     style="color:#000000;clip-rule:nonzero;display:inline;overflow:visible;visibility:visible;opacity:1;isolation:auto;mix-blend-mode:normal;color-interpolation:sRGB;color-interpolation-filters:linearRGB;solid-color:#000000;solid-opacity:1;fill:#ffffff;fill-opacity:1;fill-rule:nonzero;stroke:none;stroke-width:1;stroke-linecap:butt;stroke-linejoin:miter;stroke-miterlimit:4;stroke-dasharray:none;stroke-dashoffset:0;stroke-opacity:1;marker:none;color-rendering:auto;image-rendering:auto;shape-rendering:auto;text-rendering:auto;enable-background:accumulate" />
  <g
     id="gear"
     transform="matrix(0.32966253,0,0,0.32966253,30.999999,30.999999)"
     style="fill:#000000;fill-opacity:1;stroke:none">
    <path
       style="color:#000000;clip-rule:nonzero;display:inline;overflow:visible;visibility:visible;opacity:1;isolation:auto;mix-blend-mode:normal;color-interpolation:sRGB;color-interpolation-filters:linearRGB;solid-color:#000000;solid-opacity:1;fill:#7a7a7a;fill-opacity:1;fill-rule:nonzero;stroke:none;stroke-width:13.32302856;stroke-linecap:butt;stroke-linejoin:miter;stroke-miterlimit:4;stroke-dasharray:none;stroke-dashoffset:0;stroke-opacity:1;color-rendering:auto;image-rendering:auto;shape-rendering:auto;text-rendering:auto;enable-background:accumulate"
       d="m 25.3125,1 -0.822266,1.9628906 -0.232422,1.4140625 0.04297,0.5292969 -2.11914,0.2792969 -0.0957,-0.5234375 -0.589844,-1.3046875 -1.302735,-1.6835938 -1.328125,0.3554688 -0.285156,2.109375 0.140625,1.4257812 0.179688,0.5 -1.976563,0.8183594 -0.228516,-0.4804687 -0.90625,-1.1074219 -1.693359,-1.2890625 -1.191406,0.6875 0.269531,2.1113281 0.50586,1.3398437 0.302734,0.4375 L 12.28516,9.8828125 11.94141,9.4785156 10.779301,8.6425781 8.8085978,7.8359375 7.8359415,8.8085938 l 0.8066406,1.9707032 0.8359375,1.162109 0.4042969,0.34375 -1.3007813,1.697266 -0.4375,-0.302734 -1.3398437,-0.50586 -2.1113281,-0.269531 -0.6875,1.191406 1.2890625,1.693359 1.1074219,0.90625 0.4804687,0.228516 -0.8183594,1.976563 -0.5,-0.179688 -1.4257812,-0.140625 -2.109375,0.285156 -0.3554688,1.328125 1.6835938,1.302735 1.3046875,0.589844 0.5234375,0.0957 L 4.90625,24.300781 4.3769531,24.257812 2.9628906,24.490234 1,25.3125 l 0,1.375 1.9628906,0.822266 1.4140625,0.232422 0.5292969,-0.04297 0.2792969,2.11914 -0.5234375,0.0957 -1.3046875,0.589844 -1.6835938,1.302735 0.3554688,1.328125 2.109375,0.285156 1.4257812,-0.140625 0.5,-0.179688 0.8183594,1.976563 -0.4804687,0.228516 -1.1074219,0.90625 -1.2890625,1.693359 0.6875,1.191406 2.1113281,-0.269531 1.3398437,-0.50586 0.4375,-0.302734 1.3007813,1.697266 -0.4042969,0.34375 -0.8359375,1.162109 -0.8066406,1.970703 0.9726563,0.972656 1.9707032,-0.80664 1.162109,-0.835938 0.34375,-0.404296 1.697266,1.300781 -0.302734,0.4375 -0.50586,1.339843 -0.269531,2.111329 1.191406,0.6875 1.693359,-1.289063 0.90625,-1.107422 0.228516,-0.480468 1.976563,0.818359 -0.179688,0.5 -0.140625,1.425781 0.285156,2.109375 1.328125,0.355469 1.302735,-1.683594 0.589844,-1.304687 0.0957,-0.523438 2.11914,0.279297 -0.04297,0.529297 0.232422,1.414062 L 25.3125,51 l 1.375,0 0.822266,-1.962891 0.232422,-1.414062 -0.04297,-0.529297 2.11914,-0.279297 0.0957,0.523438 0.589844,1.304687 1.302735,1.683594 1.328125,-0.355469 0.285156,-2.109375 -0.140625,-1.425781 -0.179688,-0.5 1.976563,-0.818359 0.228516,0.480468 0.90625,1.107422 1.693359,1.289063 1.191406,-0.6875 -0.269531,-2.111329 -0.50586,-1.339843 -0.302734,-0.4375 1.697266,-1.300781 0.34375,0.404296 1.162109,0.835938 1.970703,0.80664 0.972656,-0.972656 -0.80664,-1.970703 -0.835938,-1.162109 -0.404296,-0.34375 1.300781,-1.697266 0.4375,0.302734 1.339843,0.50586 2.111329,0.269531 0.6875,-1.191406 -1.289063,-1.693359 -1.107422,-0.90625 -0.480468,-0.228516 0.818359,-1.976563 0.5,0.179688 1.425781,0.140625 2.109375,-0.285156 0.355469,-1.328125 -1.683594,-1.302735 -1.304687,-0.589844 -0.523438,-0.0957 0.279297,-2.11914 0.529297,0.04297 L 49.037105,27.50977 51,26.6875 l 0,-1.375 -1.962891,-0.822266 -1.414062,-0.232422 -0.529297,0.04297 -0.279297,-2.11914 0.523438,-0.0957 1.304687,-0.589844 1.683594,-1.302735 -0.355469,-1.328125 -2.109375,-0.285156 -1.425781,0.140625 -0.5,0.179688 -0.818359,-1.976563 0.480468,-0.228516 1.107422,-0.90625 1.289063,-1.693359 -0.6875,-1.191406 -2.111329,0.269531 -1.339843,0.50586 -0.4375,0.302734 -1.300781,-1.697266 0.404296,-0.34375 0.835938,-1.162109 0.80664,-1.9707032 -0.972656,-0.9726563 -1.970703,0.8066406 -1.162109,0.8359375 -0.34375,0.4042969 -1.697266,-1.3007813 0.302734,-0.4375 0.50586,-1.3398437 0.269531,-2.1113281 -1.191406,-0.6875 -1.693359,1.2890625 -0.90625,1.1074219 -0.228516,0.4804687 -1.976563,-0.8183594 0.179688,-0.5 0.140625,-1.4257812 -0.285156,-2.109375 -1.328125,-0.3554688 -1.302735,1.6835938 -0.589844,1.3046875 -0.0957,0.5234375 L 27.699219,4.90625 27.742188,4.3769531 27.509766,2.9628906 26.6875,1 25.3125,1 Z M 26,6.4394531 c 10.827736,0 19.560547,8.7328109 19.560547,19.5605469 l -1,0 C 44.560547,15.708967 36.291033,7.4394531 26,7.4394531 c -3.390837,0 -6.552855,0.9122941 -9.28125,2.484375 l -0.498047,-0.859375 c 2.876812,-1.6610473 6.208937,-2.625 9.779297,-2.625 z m 0,2.9101563 c 3.038034,0 5.87387,0.8209736 8.322266,2.2343746 l -0.496094,0.859375 C 31.525722,11.118179 28.859373,10.349609 26,10.349609 17.321058,10.349609 10.349609,17.321058 10.349609,26 L 9.3496094,26 C 9.3496094,16.784355 16.784355,9.3496094 26,9.3496094 Z m -6.876953,4.7382816 0.496094,0.859375 C 15.802013,17.145922 13.240234,21.254464 13.240234,26 c 0,4.745536 2.561779,8.854078 6.378907,11.052734 l -0.496094,0.859375 C 15.009305,35.536496 12.240234,31.103579 12.240234,26 c 0,-5.103579 2.769071,-9.536496 6.882813,-11.912109 z m 13.753906,0 c 4.113742,2.375613 6.882813,6.80853 6.882813,11.912109 0,5.103579 -2.769071,9.536496 -6.882813,11.912109 L 32.380859,37.052734 C 36.197987,34.854078 38.759766,30.745536 38.759766,26 c 0,-4.745536 -2.561779,-8.854078 -6.378907,-11.052734 l 0.496094,-0.859375 z M 26,15.103516 c 6.0283,0 10.896484,4.868184 10.896484,10.896484 l -1,0 c 0,-5.491597 -4.404887,-9.896484 -9.896484,-9.896484 -1.80913,0 -3.494601,0.486745 -4.949219,1.324218 l -0.498047,-0.861328 c 1.6026,-0.92575 3.459412,-1.46289 5.447266,-1.46289 z m 0,2.814453 c 1.473573,0 2.850478,0.39918 4.039062,1.085937 l -0.496093,0.859375 C 28.502038,19.264284 27.295447,18.917969 26,18.917969 c -3.93241,0 -7.082031,3.149621 -7.082031,7.082031 l -1,0 c 0,-4.469113 3.612918,-8.082031 8.082031,-8.082031 z m -2.679688,3.439453 0.503907,0.873047 C 22.518253,22.980973 21.63672,24.373235 21.636719,26 c 3e-5,1.626746 0.881534,3.019027 2.1875,3.769531 l -0.503907,0.873047 C 21.71746,29.715194 20.636719,27.984996 20.636719,26 c -1e-6,-1.984995 1.080745,-3.71521 2.683593,-4.642578 z m 5.359376,0 c 1.602852,0.927384 2.683593,2.657582 2.683593,4.642578 1e-6,1.984995 -1.080745,3.71521 -2.683593,4.642578 l -0.503907,-0.873047 c 1.305965,-0.750505 2.187501,-2.142766 2.1875,-3.769531 -2.9e-5,-1.626746 -0.881533,-3.019027 -2.1875,-3.769531 l 0.503907,-0.873047 z M 26,23.638672 c 1.304557,0 2.361328,1.056771 2.361328,2.361328 0,1.304557 -1.056771,2.361328 -2.361328,2.361328 -1.304557,0 -2.361328,-1.056771 -2.361328,-2.361328 0,-1.304557 1.056771,-2.361328 2.361328,-2.361328 z M 6.4394531,26 l 1,0 c 0,10.291033 8.2695139,18.560547 18.5605469,18.560547 3.390837,0 6.552855,-0.912294 9.28125,-2.484375 l 0.498047,0.859375 C 32.902485,44.596594 29.57036,45.560547 26,45.560547 15.172264,45.560547 6.4394531,36.827736 6.4394531,26 Z m 8.6640629,0 1,0 c 0,5.491597 4.404887,9.896484 9.896484,9.896484 1.80913,0 3.494601,-0.486745 4.949219,-1.324218 l 0.498047,0.861328 C 29.844666,36.359344 27.987854,36.896484 26,36.896484 19.9717,36.896484 15.103516,32.0283 15.103516,26 Z m 17.978515,0 1,0 c 0,4.469113 -3.612918,8.082031 -8.082031,8.082031 -1.473573,0 -2.850478,-0.39918 -4.039062,-1.085937 l 0.496093,-0.859375 c 1.040931,0.598997 2.247522,0.945312 3.542969,0.945312 3.93241,0 7.082031,-3.149621 7.082031,-7.082031 z m 8.56836,0 1,0 c 0,9.215645 -7.434746,16.650391 -16.650391,16.650391 -3.038034,0 -5.87387,-0.820974 -8.322266,-2.234375 l 0.496094,-0.859375 c 2.30045,1.32518 4.966799,2.09375 7.826172,2.09375 8.678942,0 15.650391,-6.971449 15.650391,-15.650391 z"
       transform="matrix(3.6400861,0,0,3.6400861,-94.642237,-94.642237)"
       id="path3347" />
  </g>
  <rect
     rx="1.7332199"
     ry="1.7332199"
     y="29.266781"
     x="29.266781"
     height="3.4664397"
     width="3.4664397"
     id="rect4138"
     style="color:#000000;clip-rule:nonzero;display:inline;overflow:visible;visibility:visible;opacity:1;isolation:auto;mix-blend-mode:normal;color-interpolation:sRGB;color-interpolation-filters:linearRGB;solid-color:#000000;solid-opacity:1;fill:#8193e9;fill-opacity:1;fill-rule:nonzero;stroke:none;stroke-width:4.99999952;stroke-linecap:butt;stroke-linejoin:round;stroke-miterlimit:4;stroke-dasharray:none;stroke-dashoffset:0;stroke-opacity:1;marker:none;color-rendering:auto;image-rendering:auto;shape-rendering:auto;text-rendering:auto;enable-background:accumulate" />
</svg>
